<svg version="1.1" id="Layer_1" xmlns="http://www.w3.org/2000/svg" xmlns:xlink="http://www.w3.org/1999/xlink" x="0px"
     y="0px"
     width="100%" viewBox="0 0 512 512" enable-background="new 0 0 512 512" xml:space="preserve">
    <path fill="#010100" opacity="1" stroke="none" d="M513.000000,435.000000C513.000000,442.354248 513.000000,449.708496 512.615479,457.667297C509.048920,479.836548 496.927124,495.253754 478.420044,505.662964C472.204193,509.159088 464.839569,510.612762 458.000000,513.000000C359.312439,513.000000 260.624878,513.000000 161.335968,512.618042C145.363007,509.971313 132.733917,502.514648 123.300896,490.495239C110.146454,473.733978 105.003738,454.079926 105.000313,432.962128C104.995239,401.642548 105.081581,370.322510 104.912399,339.003845C104.886200,334.153503 107.182838,331.026459 110.442978,328.167358C116.322243,323.011353 122.253197,317.914215 128.185516,312.772614C122.429802,308.947540 117.421349,305.063293 111.910767,302.118683C106.754532,299.363403 104.882507,295.753540 104.901802,289.965027C105.070114,239.487762 104.999001,189.009689 104.999001,138.531845C104.999001,136.764771 104.999001,134.997711 104.999001,133.000992C84.978706,133.000992 65.512001,133.009613 46.045322,132.985443C44.401237,132.983398 42.696270,133.003326 41.122879,132.605026C24.178337,128.315598 13.149754,117.421455 6.847530,101.445526C4.713766,96.036499 2.938886,90.485901 1.000001,85.000000C1.000000,76.645767 1.000000,68.291534 1.389359,59.326633C2.521181,54.934048 2.974895,51.067345 4.056273,47.384956C8.648735,31.746384 16.888126,18.370153 30.562973,9.224631C36.076225,5.537455 42.817562,3.686577 49.000000,1.000000C169.354233,1.000000 289.708466,1.000000 410.660522,1.379066C427.245758,4.538146 439.699493,12.909095 448.962372,26.032888C454.610291,34.034904 458.366028,42.993771 458.891418,52.820274C459.397675,62.288540 459.024994,71.805168 458.991333,81.300385C458.973206,86.416595 455.393097,89.962936 450.255005,89.993240C444.521118,90.027061 438.786896,90.000999 431.468719,90.000999C433.266815,93.517860 433.934814,96.390327 435.730133,98.023987C440.039948,101.945763 444.798370,105.396805 449.524750,108.832870C455.414001,113.114326 456.882446,119.096695 452.627686,124.621521C451.029663,126.696587 448.324402,127.959084 446.032288,129.451202C441.259186,132.558365 436.424988,135.571609 431.515839,138.686951C439.381714,144.555969 446.404694,150.285385 453.945099,155.224976C457.983307,157.870346 459.057678,160.954147 459.053009,165.383423C458.979004,235.515518 459.000916,305.647736 459.000946,375.779938C459.000946,377.755341 459.000977,379.730713 459.000977,381.643280C470.164642,383.586945 479.970734,388.103851 488.255554,395.042389C495.591278,401.186005 502.579132,407.998322 506.093597,417.408875C508.297180,423.309387 510.691315,429.138733 513.000000,435.000000M48.225273,75.004150C42.113914,73.207207 40.336220,67.636169 41.100609,63.403763C42.086288,57.946091 44.852909,55.051266 51.808723,55.007439C62.573170,55.566757 72.165466,58.945652 78.869545,67.766830C89.440048,81.675446 89.834709,96.958031 83.592026,112.721405C90.937996,112.721405 97.862885,112.721405 105.532448,112.721405C104.992470,97.313805 104.974960,82.168419 103.769157,67.118233C102.832146,55.423019 99.336258,44.189701 91.508484,34.990051C85.658653,28.114983 78.667015,22.938505 68.208282,22.761745C61.945618,22.916447 55.426716,22.022018 49.480942,23.474197C40.779583,25.599390 34.965580,32.168800 30.563477,39.894577C19.529976,59.258575 17.896788,79.020142 29.105505,98.713608C34.897060,108.889236 46.187313,116.527199 59.959953,109.400726C67.065598,104.247795 69.554916,95.132545 66.402771,85.808792C63.804153,78.122314 58.558933,74.900642 48.225273,75.004150M154.525879,450.194824C145.414246,443.084656 142.718277,432.950226 142.103638,422.224884C141.445663,410.743469 144.934921,400.416016 153.654312,392.004456C161.865311,384.407318 171.544006,380.993744 182.744781,381.002808C266.230072,381.070435 349.715454,381.015686 433.200806,380.999390C435.111908,380.999023 437.022980,380.999329 438.999146,380.999329C438.999146,311.089661 439.020355,241.935837 438.876221,172.782364C438.872650,171.065414 437.441223,168.823853 435.994019,167.724182C427.379608,161.178589 418.562988,154.899185 409.816864,148.526855C399.377441,140.920822 399.680847,134.102829 410.763458,127.165817C415.904907,123.947571 421.045929,120.728546 426.632385,117.231140C423.092621,114.509499 419.675323,112.555435 417.191132,109.769402C415.010803,107.324097 412.831665,104.058983 412.496307,100.956612C411.784058,94.367805 412.050415,87.640045 412.327454,80.986404C412.629913,73.722588 416.534302,70.157967 423.818390,70.018188C428.764923,69.923256 433.714752,70.000046 438.587402,70.000046C442.418854,39.790108 422.344757,20.640060 395.333710,20.793428C301.019684,21.328936 206.700714,21.000748 112.383629,21.000755C110.626450,21.000755 108.869263,21.000757 106.754440,21.000757C107.122978,21.988783 107.184608,22.479427 107.447151,22.811003C118.062904,36.218643 122.952637,51.875301 123.945038,68.565681C124.962166,85.672058 124.712624,102.852882 125.089668,119.999535C125.126923,121.694260 125.667587,123.377930 125.999084,125.991455C125.999718,177.767471 125.965019,229.543579 126.121689,281.319122C126.128418,283.542053 127.280533,286.633026 128.960220,287.827637C136.029236,292.855286 143.524551,297.280334 150.819122,301.995087C156.656067,305.767761 158.267548,312.624756 153.541275,317.729187C147.491394,324.263153 140.670654,330.116455 133.910950,335.948792C129.204025,340.009979 125.629578,343.694305 125.777596,350.991486C126.334541,378.449799 125.684982,405.931915 126.186607,433.392365C126.344498,442.035492 127.564835,451.012329 130.266144,459.186310C137.018326,479.618103 152.676514,494.028381 174.827484,492.002594C182.957718,492.685028 188.838928,488.174835 193.859222,482.855103C206.745041,469.200531 210.522186,452.375824 208.525391,434.292236C207.274323,422.962097 202.746948,412.776550 193.197601,405.599365C186.097321,400.262848 177.364975,399.615662 170.799454,403.865814C164.048904,408.235779 161.155167,416.568756 163.112885,426.000641C164.780548,434.035095 169.211823,437.664368 179.044312,439.048737C185.160355,439.909882 189.171753,444.366882 188.661011,449.733704C188.112320,455.499023 183.418442,459.183197 177.061844,458.898560C168.813629,458.529297 161.595200,455.434723 154.525879,450.194824M473.686981,484.277344C487.246307,473.893402 494.335480,460.188965 492.531006,443.134033C489.812042,417.436127 470.837128,401.038177 444.772522,401.019379C370.107208,400.965515 295.441833,400.998871 220.776474,401.014404C219.584152,401.014648 218.391876,401.224091 217.744949,401.284760C221.230164,409.220093 224.607254,416.909241 228.160583,424.999664C229.438507,424.999664 231.262039,424.999664 233.085556,424.999664C282.418030,424.999664 331.750488,424.998291 381.082947,425.000916C390.065552,425.001373 394.989014,428.587494 394.934387,435.067657C394.879944,441.527008 389.999115,444.998932 380.947662,444.999329C332.115173,445.001373 283.282715,445.000336 234.450226,445.000336C232.671890,445.000336 230.893555,445.000336 229.014114,445.000336C228.044937,462.841736 222.796356,478.652344 212.032867,492.999512C213.854416,492.999512 214.848282,492.999512 215.842133,492.999512C292.174133,492.999542 368.506104,492.996674 444.838104,493.003052C455.080505,493.003906 464.575653,490.489227 473.686981,484.277344z"/>
    <path fill="#FEDA9B" opacity="1" stroke="none" d="M125.974594,125.066727C125.667587,123.377930 125.126923,121.694260 125.089668,119.999535C124.712624,102.852882 124.962166,85.672058 123.945038,68.565681C122.952637,51.875301 118.062904,36.218643 107.447151,22.811003C107.184608,22.479427 107.122978,21.988783 106.754440,21.000757C108.869263,21.000757 110.626450,21.000755 112.383629,21.000755C206.700714,21.000748 301.019684,21.328936 395.333710,20.793428C422.344757,20.640060 442.418854,39.790108 438.587402,70.000046C433.714752,70.000046 428.764923,69.923256 423.818390,70.018188C416.534302,70.157967 412.629913,73.722588 412.327454,80.986404C412.050415,87.640045 411.784058,94.367805 412.496307,100.956612C412.831665,104.058983 415.010803,107.324097 417.191132,109.769402C419.675323,112.555435 423.092621,114.509499 426.632385,117.231140C421.045929,120.728546 415.904907,123.947571 410.763458,127.165817C399.680847,134.102829 399.377441,140.920822 409.816864,148.526855C418.562988,154.899185 427.379608,161.178589 435.994019,167.724182C437.441223,168.823853 438.872650,171.065414 438.876221,172.782364C439.020355,241.935837 438.999146,311.089661 438.999146,380.999329C437.022980,380.999329 435.111908,380.999023 433.200806,380.999390C349.715454,381.015686 266.230072,381.070435 182.744781,381.002808C171.544006,380.993744 161.865311,384.407318 153.321869,391.481598C152.993179,375.144592 152.965256,359.330231 153.051727,343.516541C153.059982,342.003510 153.285690,339.956360 154.249771,339.067657C162.768356,331.214966 171.476822,323.568237 180.444855,316.004974C183.215698,321.284302 187.391235,323.054077 192.938354,323.047211C253.591934,322.972168 314.245636,323.007782 374.899292,322.966614C376.866608,322.965271 378.949097,322.788422 380.777344,322.133484C384.959442,320.635315 387.140625,317.455353 387.128662,312.973114C387.116699,308.490448 384.925903,305.298920 380.724365,303.857788C378.734100,303.175110 376.480194,303.034271 374.345459,303.032806C314.025085,302.991699 253.704559,303.050598 193.384415,302.925598C186.948685,302.912231 182.580887,305.217407 179.802551,311.088074C172.197784,306.403656 165.111404,301.515320 157.647644,297.294250C153.716095,295.070801 152.905182,292.332520 152.915527,288.161865C153.045258,235.882797 153.000565,183.603302 153.000565,131.323914C153.000565,129.387466 153.000565,127.451012 153.000565,125.066727C143.542328,125.066727 134.758453,125.066727 125.974594,125.066727M251.500000,134.999619C232.519211,134.999619 213.538422,134.998138 194.557632,135.000244C185.348022,135.001282 180.625351,138.269333 180.437988,144.761337C180.246124,151.409424 185.199554,154.999557 194.579803,154.999756C254.186157,155.000946 313.792511,155.009949 373.398834,154.966568C375.864166,154.964783 378.462982,154.872604 380.765137,154.112488C384.973053,152.723114 387.133545,149.467773 387.128937,144.989426C387.124329,140.510834 384.949005,137.289612 380.746918,135.873413C378.602448,135.150665 376.176392,135.036163 373.877167,135.033493C333.418121,134.986664 292.959076,134.999619 251.500000,134.999619M340.500000,211.000381C348.158875,211.000381 355.817749,211.001175 363.476624,211.000076C367.805573,210.999451 372.138458,211.112579 376.462524,210.966171C383.073181,210.742355 387.186890,206.785233 387.146576,200.921753C387.106506,195.093140 382.952759,191.290268 376.306824,191.007690C375.641968,190.979416 374.975006,190.999802 374.309021,190.999802C314.036652,190.999619 253.764297,190.993942 193.491943,191.025040C191.516754,191.026062 189.472748,191.144852 187.580383,191.653534C182.984055,192.889084 180.799408,196.308853 180.483902,200.831268C180.178528,205.208725 183.246475,209.230789 187.730133,210.385788C189.785477,210.915268 192.002930,210.975433 194.147049,210.976791C242.598022,211.007446 291.049011,211.000366 340.500000,211.000381M361.498901,267.000336C366.327332,267.000000 371.157501,267.082703 375.983734,266.979492C382.955261,266.830353 387.198425,262.933319 387.146576,256.901581C387.095032,250.904800 382.833221,247.188629 375.787262,247.002777C375.121735,246.985214 374.455322,246.999664 373.789337,246.999664C313.849915,246.999634 253.910492,246.998718 193.971069,247.004852C192.474594,247.005005 190.957840,246.940369 189.485275,247.149933C184.202026,247.901794 180.532150,251.893570 180.438004,256.848450C180.341385,261.932892 184.195282,266.176788 189.679825,266.873627C191.321075,267.082153 193.003418,266.996002 194.666931,266.996155C249.944397,267.001190 305.221863,267.000336 361.498901,267.000336M308.500000,99.000595C313.496735,99.000595 318.493439,99.000626 323.490173,99.000587C340.812042,99.000465 358.134125,99.047043 375.455719,98.979393C383.469360,98.948097 387.971466,94.342453 387.017517,87.432976C386.280090,82.091652 382.140106,79.018616 375.305237,79.014481C328.502869,78.986191 281.700500,78.990585 234.898148,79.033852C233.098724,79.035515 230.755142,78.925850 229.612732,79.937813C227.151749,82.117775 223.995880,84.803764 223.582138,87.641037C223.169296,90.472244 225.068497,94.430656 227.244095,96.602783C229.029861,98.385674 232.703857,98.884361 235.548264,98.904366C259.531219,99.073067 283.515869,99.000580 308.500000,99.000595M200.087463,90.207932C201.466660,83.359932 194.102051,78.042480 188.682388,79.240677C183.894379,80.299240 180.394012,84.391861 180.462326,89.120316C180.530945,93.871284 184.108719,97.964157 188.920532,98.796272C193.753876,99.632103 197.750839,96.824898 200.087463,90.207932z"/>
    <path fill="#FEDA9B" opacity="1" stroke="none" d="M473.411377,484.512024C464.575653,490.489227 455.080505,493.003906 444.838104,493.003052C368.506104,492.996674 292.174133,492.999542 215.842133,492.999512C214.848282,492.999512 213.854416,492.999512 212.032867,492.999512C222.796356,478.652344 228.044937,462.841736 229.014114,445.000336C230.893555,445.000336 232.671890,445.000336 234.450226,445.000336C283.282715,445.000336 332.115173,445.001373 380.947662,444.999329C389.999115,444.998932 394.879944,441.527008 394.934387,435.067657C394.989014,428.587494 390.065552,425.001373 381.082947,425.000916C331.750488,424.998291 282.418030,424.999664 233.085556,424.999664C231.262039,424.999664 229.438507,424.999664 228.160583,424.999664C224.607254,416.909241 221.230164,409.220093 217.744949,401.284760C218.391876,401.224091 219.584152,401.014648 220.776474,401.014404C295.441833,400.998871 370.107208,400.965515 444.772522,401.019379C470.837128,401.038177 489.812042,417.436127 492.531006,443.134033C494.335480,460.188965 487.246307,473.893402 473.411377,484.512024M433.112488,431.610565C429.653259,425.607697 424.751190,423.607025 419.612854,426.100983C415.059265,428.311127 412.840088,433.638763 414.540558,438.278107C416.279053,443.021179 421.393433,445.811676 426.108093,444.589539C431.645477,443.154144 434.364014,438.524414 433.112488,431.610565z"/>
    <path fill="#FCD89A" opacity="1" stroke="none" d="M174.399323,491.920715C165.021362,481.884491 158.336441,470.721771 155.722656,457.417236C155.345917,455.499573 155.245148,453.527679 155.006134,451.122864C161.595200,455.434723 168.813629,458.529297 177.061844,458.898560C183.418442,459.183197 188.112320,455.499023 188.661011,449.733704C189.171753,444.366882 185.160355,439.909882 179.044312,439.048737C169.211823,437.664368 164.780548,434.035095 163.112885,426.000641C161.155167,416.568756 164.048904,408.235779 170.799454,403.865814C177.364975,399.615662 186.097321,400.262848 193.197601,405.599365C202.746948,412.776550 207.274323,422.962097 208.525391,434.292236C210.522186,452.375824 206.745041,469.200531 193.859222,482.855103C188.838928,488.174835 182.957718,492.685028 174.399323,491.920715z"/>
    <path fill="#FCD89A" opacity="1" stroke="none" d="M68.971703,23.161661C78.667015,22.938505 85.658653,28.114983 91.508484,34.990051C99.336258,44.189701 102.832146,55.423019 103.769157,67.118233C104.974960,82.168419 104.992470,97.313805 105.532448,112.721405C97.862885,112.721405 90.937996,112.721405 83.592026,112.721405C89.834709,96.958031 89.440048,81.675446 78.869545,67.766830C72.165466,58.945652 62.573170,55.566757 51.441078,54.552029C54.458073,42.291397 60.111259,31.798706 68.971703,23.161661z"/>
    <path fill="#FAD698" opacity="1" stroke="none" d="M59.603554,109.463959C51.884514,99.558449 48.650959,88.327011 48.976994,75.548149C58.558933,74.900642 63.804153,78.122314 66.402771,85.808792C69.554916,95.132545 67.065598,104.247795 59.603554,109.463959z"/>
    <path fill="#000000" opacity="1" stroke="none" d="M180.444855,316.004974C180.118591,314.553680 180.108047,313.246704 180.130844,311.550537C182.580887,305.217407 186.948685,302.912231 193.384415,302.925598C253.704559,303.050598 314.025085,302.991699 374.345459,303.032806C376.480194,303.034271 378.734100,303.175110 380.724365,303.857788C384.925903,305.298920 387.116699,308.490448 387.128662,312.973114C387.140625,317.455353 384.959442,320.635315 380.777344,322.133484C378.949097,322.788422 376.866608,322.965271 374.899292,322.966614C314.245636,323.007782 253.591934,322.972168 192.938354,323.047211C187.391235,323.054077 183.215698,321.284302 180.444855,316.004974z"/>
    <path fill="#000000" opacity="1" stroke="none" d="M252.000000,134.999619C292.959076,134.999619 333.418121,134.986664 373.877167,135.033493C376.176392,135.036163 378.602448,135.150665 380.746918,135.873413C384.949005,137.289612 387.124329,140.510834 387.128937,144.989426C387.133545,149.467773 384.973053,152.723114 380.765137,154.112488C378.462982,154.872604 375.864166,154.964783 373.398834,154.966568C313.792511,155.009949 254.186157,155.000946 194.579803,154.999756C185.199554,154.999557 180.246124,151.409424 180.437988,144.761337C180.625351,138.269333 185.348022,135.001282 194.557632,135.000244C213.538422,134.998138 232.519211,134.999619 252.000000,134.999619z"/>
    <path fill="#000000" opacity="1" stroke="none" d="M340.000000,211.000381C291.049011,211.000366 242.598022,211.007446 194.147049,210.976791C192.002930,210.975433 189.785477,210.915268 187.730133,210.385788C183.246475,209.230789 180.178528,205.208725 180.483902,200.831268C180.799408,196.308853 182.984055,192.889084 187.580383,191.653534C189.472748,191.144852 191.516754,191.026062 193.491943,191.025040C253.764297,190.993942 314.036652,190.999619 374.309021,190.999802C374.975006,190.999802 375.641968,190.979416 376.306824,191.007690C382.952759,191.290268 387.106506,195.093140 387.146576,200.921753C387.186890,206.785233 383.073181,210.742355 376.462524,210.966171C372.138458,211.112579 367.805573,210.999451 363.476624,211.000076C355.817749,211.001175 348.158875,211.000381 340.000000,211.000381z"/>
    <path fill="#000000" opacity="1" stroke="none" d="M360.999115,267.000336C305.221863,267.000336 249.944397,267.001190 194.666931,266.996155C193.003418,266.996002 191.321075,267.082153 189.679825,266.873627C184.195282,266.176788 180.341385,261.932892 180.438004,256.848450C180.532150,251.893570 184.202026,247.901794 189.485275,247.149933C190.957840,246.940369 192.474594,247.005005 193.971069,247.004852C253.910492,246.998718 313.849915,246.999634 373.789337,246.999664C374.455322,246.999664 375.121735,246.985214 375.787262,247.002777C382.833221,247.188629 387.095032,250.904800 387.146576,256.901581C387.198425,262.933319 382.955261,266.830353 375.983734,266.979492C371.157501,267.082703 366.327332,267.000000 360.999115,267.000336z"/>
    <path fill="#010000" opacity="1" stroke="none" d="M308.000000,99.000595C283.515869,99.000580 259.531219,99.073067 235.548264,98.904366C232.703857,98.884361 229.029861,98.385674 227.244095,96.602783C225.068497,94.430656 223.169296,90.472244 223.582138,87.641037C223.995880,84.803764 227.151749,82.117775 229.612732,79.937813C230.755142,78.925850 233.098724,79.035515 234.898148,79.033852C281.700500,78.990585 328.502869,78.986191 375.305237,79.014481C382.140106,79.018616 386.280090,82.091652 387.017517,87.432976C387.971466,94.342453 383.469360,98.948097 375.455719,98.979393C358.134125,99.047043 340.812042,99.000465 323.490173,99.000587C318.493439,99.000626 313.496735,99.000595 308.000000,99.000595z"/>
    <path fill="#060504" opacity="1" stroke="none" d="M200.038254,90.615181C197.750839,96.824898 193.753876,99.632103 188.920532,98.796272C184.108719,97.964157 180.530945,93.871284 180.462326,89.120316C180.394012,84.391861 183.894379,80.299240 188.682388,79.240677C194.102051,78.042480 201.466660,83.359932 200.038254,90.615181z"/>
    <path fill="#080605" opacity="1" stroke="none" d="M433.198853,431.988647C434.364014,438.524414 431.645477,443.154144 426.108093,444.589539C421.393433,445.811676 416.279053,443.021179 414.540558,438.278107C412.840088,433.638763 415.059265,428.311127 419.612854,426.100983C424.751190,423.607025 429.653259,425.607697 433.198853,431.988647z"/>
</svg>